# xmcd
#
# Track frame offsets:
#	150
#	21713
#	30332
#	44344
#	59201
#	72028
#	90887
#	106174
#	123050
#	140099
#	152420
#	163761
#	179777
#	199269
#	215663
#	231392
#
# Disc length: 3329 seconds
#
# Revision: 2
# Processed by: cddbd v1.5.2PL0 Copyright (c) Steve Scherf et al.
# Submitted via: audiograbber 1.83.01
#
DISCID=e70cff10
DTITLE=Various Artist - The World Of Pop - Thekenhits
DYEAR=2000
DGENRE=Pop
TTITLE0=Soul and The Folks - Celebration
TTITLE1=Conny Sam - Daddy Cool
TTITLE2=MC and The Summerland - That's The Way I Like It
TTITLE3=Eric Sanchez - Born To Be Alive
TTITLE4=Don Cavallo and Julia Raoul Eckstein - You're The One That I Want
TTITLE5=Ronald Old - Love Is In The Air
TTITLE6=Happy Pipes - Video Killed The Radio Star
TTITLE7=Blacky - Heart Of Glass
TTITLE8=Maria Straight - Upside Down
TTITLE9=Bo-Wop - Waterloo
TTITLE10=Good Dreams - Baby Love
TTITLE11=Scrip - Le Freak
TTITLE12=Eileen Dannah - Fame
TTITLE13=Mega Folks - Dreamer
TTITLE14=Sun, Moon and Stars - September
TTITLE15=Ronda Fuller - On The Radio
EXTD=
EXTT0=
EXTT1=
EXTT2=
EXTT3=
EXTT4=
EXTT5=
EXTT6=
EXTT7=
EXTT8=
EXTT9=
EXTT10=
EXTT11=
EXTT12=
EXTT13=
EXTT14=
EXTT15=
PLAYORDER=
